<svg width="111" height="16" viewBox="0 0 111 16" fill="none" xmlns="http://www.w3.org/2000/svg">
<g clip-path="url(#clip0)">
<path d="M8.46809 0V3.37804H7.90875C7.55527 3.36199 7.20826 3.46919 6.9375 3.67809C6.81577 3.78175 6.72028 3.90858 6.65773 4.04966C6.59519 4.19075 6.5671 4.34268 6.57545 4.49478V4.81868H14.6902V15.6761H10.2827V7.95827H6.57328V15.6761H2.16797V7.95827H0V4.81868H2.16797V4.23646C2.16797 2.94618 2.61746 1.91754 3.51645 1.15052C4.41543 0.383507 5.59047 0 7.04156 0H8.46809Z" fill="white"/>
<path d="M24.691 4.49505C24.02 4.48232 23.3538 4.60269 22.7383 4.84791C22.1228 5.09314 21.5723 5.45743 21.1247 5.91582V4.80901H17.0684V15.6764H21.1247V10.4086C21.1247 9.66346 21.3003 9.09117 21.6537 8.6878C21.8228 8.49385 22.0391 8.33891 22.2854 8.23539C22.5316 8.13187 22.8008 8.08265 23.0715 8.09167C23.2984 8.08321 23.5246 8.12087 23.7337 8.20194C23.9428 8.28302 24.1298 8.40552 24.2812 8.56063C24.5983 8.90892 24.7615 9.35341 24.7387 9.80653V15.6764H29.1483V8.94613C29.1483 7.58564 28.7415 6.50333 27.9278 5.69922C27.1141 4.89512 26.0351 4.49373 24.691 4.49505Z" fill="white"/>
<path d="M36.9285 4.49508C35.2266 4.45532 33.577 5.03554 32.341 6.10859C31.0966 7.18294 30.4752 8.56595 30.4766 10.2576C30.478 11.9493 31.0995 13.3257 32.341 14.3868C33.577 15.4599 35.2266 16.0401 36.9285 16.0003C38.2273 16.0305 39.5099 15.7299 40.6335 15.132C41.6915 14.5349 42.4988 13.6283 42.9251 12.5587L39.0227 11.8493C38.6296 12.5527 37.9337 12.9038 36.935 12.9024C36.4315 12.9161 35.94 12.7598 35.554 12.4633C35.159 12.1374 34.8878 11.7044 34.78 11.2273H43.0985V10.4742C43.0812 8.61033 42.503 7.14784 41.3641 6.08674C40.2252 5.02563 38.7467 4.49508 36.9285 4.49508ZM34.8169 9.01172C34.9554 8.60442 35.2347 8.24944 35.6125 8.0003C35.9984 7.75471 36.4588 7.62678 36.9285 7.63467C37.9127 7.63467 38.5537 8.09369 38.8515 9.01172H34.8169Z" fill="white"/>
<path d="M66.3803 9.80648L64.362 4.8189H61.4786L59.458 9.80648L57.8841 4.8189H49.6458V1.75879H48.8436L43.5625 7.12392V7.95849H45.26V11.6564C45.26 13.0341 45.6741 14.1019 46.5022 14.8596C47.3304 15.6173 48.5112 15.9975 50.0447 16.0002C51.2253 15.9977 52.3865 15.7244 53.4224 15.2054L52.5552 12.1711C52.0937 12.3995 51.5772 12.5183 51.0528 12.5168C50.1162 12.5168 49.6472 12.0797 49.6458 11.2054V7.95849H54.643L57.277 15.6763H61.0081L62.9311 10.3231L64.8324 15.6763H68.5635L72.2686 4.8189H67.9521L66.3803 9.80648Z" fill="white"/>
<path d="M78.6793 4.51639C76.9436 4.47866 75.259 5.05669 73.977 6.1299C72.6849 7.20425 72.0396 8.57997 72.041 10.257C72.0424 11.9341 72.6878 13.3072 73.977 14.3763C75.2848 15.4094 76.9539 15.9777 78.6804 15.9777C80.4069 15.9777 82.076 15.4094 83.3838 14.3763C84.673 13.3072 85.3183 11.9341 85.3198 10.257C85.3212 8.57997 84.6759 7.20425 83.3838 6.1299C82.1006 5.05728 80.4156 4.47938 78.6793 4.51639ZM80.3812 11.952C80.1654 12.1687 79.9027 12.3418 79.6099 12.4603C79.3171 12.5787 79.0005 12.6399 78.6804 12.6399C78.3603 12.6399 78.0437 12.5787 77.7509 12.4603C77.4581 12.3418 77.1954 12.1687 76.9796 11.952C76.7431 11.7261 76.5579 11.4595 76.4347 11.1675C76.3115 10.8755 76.2528 10.564 76.262 10.2511C76.2441 9.62502 76.4956 9.01761 76.9623 8.5601C77.1802 8.34282 77.4449 8.16936 77.7397 8.05071C78.0345 7.93206 78.353 7.87079 78.675 7.87079C78.997 7.87079 79.3154 7.93206 79.6102 8.05071C79.9051 8.16936 80.1698 8.34282 80.3877 8.5601C80.8567 9.01877 81.1092 9.62866 81.0901 10.257C81.1068 10.8856 80.852 11.4948 80.3812 11.952Z" fill="white"/>
<path d="M91.138 6.96887V4.81885H86.75V15.6763H91.138V12.3877C91.138 11.1398 91.474 10.2476 92.1461 9.71105C92.8182 9.17454 93.788 8.90562 95.0555 8.90429L95.591 8.87846L95.7558 4.72744C95.5322 4.68905 95.3042 4.67637 95.0772 4.68969C93.3255 4.68969 92.0124 5.44942 91.138 6.96887Z" fill="white"/>
<path d="M105.531 9.97914L110.557 4.81868H105.041L101.826 8.40934H101.31V0H96.9219V15.6781H101.31V12.0656H102.039L105.204 15.6781H111.001L105.531 9.97914Z" fill="white"/>
<path d="M14.6809 0.126953L14.6896 3.49904H10.3926V0.126953H14.6809Z" fill="white"/>
</g>
<defs>
<clipPath id="clip0">
<rect width="111" height="16" fill="white"/>
</clipPath>
</defs>
</svg>
